<svg xmlns="http://www.w3.org/2000/svg" width="1231" height="862" viewBox="0 0 1231 862">
  <defs>
    <style>
      .cls-1 {
        fill-rule: evenodd;
      }
    </style>
  </defs>
  <path id="_NAITIK" data-name="  NAITIK" class="cls-1" d="M79.086,680.748V193.42c31.175,0,127.209,23.649,134.376,301.713V680.748h50.884V181.236H213.462V405.551q-12.9-111.8-51.242-169.848c-31.892-48.733-68.442-54.467-83.134-54.467H28.2V680.748H79.086Zm213.92,0h6.45L334.573,476.5H436.7l39.775,204.248h53.393L433.115,181.236H379.007ZM382.59,197l51.959,267.314H336.723ZM558.528,680.748h50.884V181.236H558.528V680.748ZM730.167,192.7l0.358,488.045h50.884V192.7H884.252V181.236H627.324V192.7H730.167Zm172,488.045h50.884V181.236H902.164V680.748Zm86.713,0h50.883V425.617h31.18c77.76,0,79.19,134.016,79.19,255.131h52.67c0-144.765-22.93-237.931-99.61-260.147l74.17-239.365h-6.81l-73.81,237.931c-7.89-2.15-16.13-2.866-25.09-2.866l-31.89-.717V181.236H988.877V680.748Z"/>
</svg>
