<svg xmlns="http://www.w3.org/2000/svg" width="1231" height="862" viewBox="0 0 1231 862">
  <defs>
    <style>
      .cls-1 {
        fill: #fff;
        fill-rule: evenodd;
      }
    </style>
  </defs>
  <path id="naitik" class="cls-1" d="M78.422,681.454V193.684c31.2,0,127.32,23.671,134.493,301.987V681.454h50.928V181.49H212.915V406.007q-12.912-111.9-51.287-170c-31.919-48.777-68.5-54.515-83.206-54.515H27.494V681.454H78.422Zm214.112,0h6.456l35.148-204.433H436.352l39.81,204.433H529.6L432.766,181.49H378.61ZM382.2,197.27l52,267.557H336.289Zm176.1,484.184h50.928V181.49H558.294V681.454Zm171.79-488.487,0.358,488.487H781.37V192.967H884.3V181.49H627.152v11.477H730.084ZM902.237,681.454h50.928V181.49H902.237V681.454Zm86.79,0h50.923V426.092h31.21c77.82,0,79.26,134.137,79.26,255.362h52.72c0-144.9-22.95-238.146-99.7-260.383l74.24-239.581h-6.82l-73.88,238.146c-7.89-2.152-16.14-2.869-25.11-2.869l-31.92-.717V181.49H989.027V681.454Z"/>
</svg>
